<svg width="24" height="24" viewBox="0 0 24 24" fill="none" xmlns="http://www.w3.org/2000/svg">
<g clip-path="url(#clip0_2_129)">
<path d="M9.75002 19.5C9.65131 19.5006 9.55346 19.4817 9.46209 19.4443C9.37071 19.407 9.2876 19.352 9.21751 19.2825L2.46752 12.5325C2.39722 12.4628 2.34142 12.3798 2.30335 12.2884C2.26527 12.1971 2.24567 12.099 2.24567 12C2.24567 11.901 2.26527 11.803 2.30335 11.7116C2.34142 11.6202 2.39722 11.5372 2.46752 11.4675L9.21751 4.71752C9.28744 4.64759 9.37046 4.59212 9.46183 4.55427C9.55319 4.51643 9.65112 4.49695 9.75002 4.49695C9.84891 4.49695 9.94684 4.51643 10.0382 4.55427C10.1296 4.59212 10.2126 4.64759 10.2825 4.71752C10.3524 4.78745 10.4079 4.87046 10.4458 4.96183C10.4836 5.0532 10.5031 5.15112 10.5031 5.25002C10.5031 5.34891 10.4836 5.44684 10.4458 5.5382C10.4079 5.62957 10.3524 5.71259 10.2825 5.78252L4.05752 12L10.2825 18.2175C10.3528 18.2872 10.4086 18.3702 10.4467 18.4616C10.4848 18.553 10.5044 18.651 10.5044 18.75C10.5044 18.849 10.4848 18.9471 10.4467 19.0384C10.4086 19.1298 10.3528 19.2128 10.2825 19.2825C10.2124 19.352 10.1293 19.407 10.0379 19.4443C9.94657 19.4817 9.84872 19.5006 9.75002 19.5Z" fill="#546E7A"/>
<path d="M21 12.75H3C2.80109 12.75 2.61032 12.671 2.46967 12.5303C2.32902 12.3897 2.25 12.1989 2.25 12C2.25 11.8011 2.32902 11.6103 2.46967 11.4697C2.61032 11.329 2.80109 11.25 3 11.25H21C21.1989 11.25 21.3897 11.329 21.5303 11.4697C21.671 11.6103 21.75 11.8011 21.75 12C21.75 12.1989 21.671 12.3897 21.5303 12.5303C21.3897 12.671 21.1989 12.75 21 12.75Z" fill="#546E7A"/>
</g>
<defs>
<clipPath id="clip0_2_129">
<rect width="24" height="24" fill="white"/>
</clipPath>
</defs>
</svg>
